DataType=double
version=3
OpenSimVersion=4.3-2021-08-27-4bc7ad9
endheader
time	ground_force_r_vx	ground_force_r_vy	ground_force_r_vz	ground_force_l_vx	ground_force_l_vy	ground_force_l_vz
0.352	-4332.176761169004	22507.38755570452	-1006.468517602383	0	0	0
0.35245574	-8751.473238271363	56624.64082378504	-54.24047250020465	0	0	0
0.35291149	-12782.13641161774	90284.65092884192	919.8641151367169	0	0	0
0.35336723	-16135.40891209848	122585.708798985	1914.951865558344	0	0	0
0.35382297	-18570.53807214261	152655.819012315	2922.97802263217	0	0	0
0.35427871	-19911.83249972266	179688.714447827	3927.645926609068	0	0	0
0.35473446	-20059.74495258606	202977.0710428707	4905.237294232232	0	0	0
0.3551902	-18995.77802587279	221940.5983821071	5826.95648676875	0	0	0
0.35564594	-16781.64580473675	236147.1838590041	6662.015313762823	0	0	0
0.35610168	-13553.3212398753	245326.2298981292	7380.647939690852	0	0	0
0.35655743	-9510.546221335904	249374.3654719441	7956.472965894739	0	0	0
0.35701317	-4902.345321933079	248354.488278229	8367.9684708363	0	0	0
0.35746891	-9.22623715222382	242489.3963789349	8599.144883828549	0	0	0
0.35792465	4876.932706974755	232151.0926183301	8639.689739169273	0	0	0
0.3583804	9473.931580660274	217846.3619550754	8484.89617442039	0	0	0
0.35883614	13529.56446865122	200198.6745302763	8135.617519283409	0	0	0
0.35929188	16839.41654645498	179926.0712786671	7598.376675152291	0	0	0
0.35974762	19260.45223755546	157814.5869077289	6885.645390255801	0	0	0
0.36020337	20719.00616736416	134687.0268452877	6016.2155086727	0	0	0
0.36065911	21212.29366390362	111367.5516244661	5015.523980207709	0	0	0
0.36111485	20803.25557571013	88643.49823738367	3915.777719166667	0	0	0
0.36157059	19609.39445176336	67227.04500783894	2755.755424290446	0	0	0
0.36202634	17787.11360485448	47720.34049332217	1580.2234548675	0	0	0
0.36248208	15513.71190182071	30588.02172310837	438.9598122187875	0	0	0
0.36293782	12969.3964147943	16140.29147295084	-614.5973695556056	0	0	0
0.36339356	10321.40472660334	4528.110936129379	-1525.086205886093	0	0	0
0.36384931	0	0	0	0	0	0
0.36430505	0	0	0	0	0	0
0.36476079	0	0	0	0	0	0
0.36521654	0	0	0	0	0	0
0.36567228	0	0	0	0	0	0
0.36612802	0	0	0	0	0	0
0.36658376	0	0	0	0	0	0
0.36703951	0	0	0	0	0	0
0.36749525	0	0	0	0	0	0
0.36795099	0	0	0	0	0	0
0.36840673	0	0	0	0	0	0
0.36886248	0	0	0	0	0	0
0.36931822	0	0	0	0	0	0
0.36977396	0	0	0	0	0	0
0.3702297	0	0	0	0	0	0
0.37068545	0	0	0	0	0	0
0.37114119	0	0	0	0	0	0
0.37159693	0	0	0	0	0	0
0.37205267	0	0	0	0	0	0
0.37250842	0	0	0	0	0	0
0.37296416	0	0	0	0	0	0
0.3734199	0	0	0	0	0	0
0.37387564	0	0	0	0	0	0
0.37433139	0	0	0	0	0	0
0.37478713	0	0	0	0	0	0
